<?xml version="1.0" encoding="utf-8"?>
<!-- Generator: Adobe Illustrator 18.1.1, SVG Export Plug-In . SVG Version: 6.00 Build 0)  -->
<svg version="1.1" id="Layer_1" xmlns="http://www.w3.org/2000/svg" xmlns:xlink="http://www.w3.org/1999/xlink" x="0px" y="0px"
	 viewBox="0 0 1366 768" enable-background="new 0 0 1366 768" xml:space="preserve">
<linearGradient id="SVGID_1_" gradientUnits="userSpaceOnUse" x1="1047.5092" y1="184.4967" x2="53.91" y2="689.7167">
	<stop  offset="0" style="stop-color:#2AA9FF"/>
	<stop  offset="1" style="stop-color:#3FFF9C"/>
</linearGradient>
<path fill="url(#SVGID_1_)" d="M103.8,724.6c56.1-2,105.6,38.5,161.2,34.5c26.1-1.9,50.4-15.1,75.4-23.5
	c51.2-17.2,107.6-13.8,156.8,9.4c16.2,7.6,32.3,17.5,49.8,18.5c21,1.2,40.7-10.6,60.3-19.3c59-26.2,126.9-25.5,185.5,1.8
	c17.6,8.2,35.3,18.9,54.3,17.9c15.2-0.8,29.2-9,43.2-15.7c65.5-31.4,142.5-30.4,207.4,2.6c12.5,6.4,25.1,14,38.8,14.2
	c14.6,0.2,28.1-8.2,41.4-15c35.3-18.1,71.1-26.2,106.1-26c28,0.2,55.4,5.8,81.6,15.9c0.3-119.5,1-451.9-0.2-456.5
	c-4.3-125.6-259.7-120.3-262.6-125.8C855.6,143.6,773.2,0,773.2,0H0v750.7C33,734.9,68.5,725.9,103.8,724.6z"/>
<linearGradient id="SVGID_2_" gradientUnits="userSpaceOnUse" x1="652.1006" y1="42.0527" x2="-56.4849" y2="402.3505">
	<stop  offset="0" style="stop-color:#002A14"/>
	<stop  offset="1" style="stop-color:#950500;stop-opacity:0"/>
</linearGradient>
<path fill="url(#SVGID_2_)" d="M1,461.5c52.5,0,95.1-42.1,95.1-94c0-51.9-42.6-94-95.1-94c-0.3,0-0.7,0-1,0v188.1
	C0.3,461.5,0.7,461.5,1,461.5z"/>
<linearGradient id="SVGID_3_" gradientUnits="userSpaceOnUse" x1="1371.4828" y1="214.0926" x2="1251.2064" y2="275.2501">
	<stop  offset="0" style="stop-color:#002A14;stop-opacity:0.3"/>
	<stop  offset="1" style="stop-color:#950500;stop-opacity:0"/>
</linearGradient>
<path fill="url(#SVGID_3_)" d="M1366,330.3c0.1-78.6,0.1-152.2-0.2-190.5c-0.1-7.5-7.2-13.4-15.8-13.2c-14.5,0.3-33.9,0.8-33.9,0.8
	c-17,0.4-31.8,8.3-39.5,20.7l-51.5,83.3c-2.6,4.1-2.4,9.2,0.4,13.2l65.5,93.7c2.9,4.1,8.1,6.6,13.6,6.4c11.7-0.3,32.3-0.7,46.4-1.1
	C1359.3,343.4,1366,337.5,1366,330.3z"/>
</svg>
